<?xml version="1.0" encoding="iso-8859-1"?>
<!-- Generator: Adobe Illustrator 18.0.0, SVG Export Plug-In . SVG Version: 6.00 Build 0)  -->
<!DOCTYPE svg PUBLIC "-//W3C//DTD SVG 1.1//EN" "http://www.w3.org/Graphics/SVG/1.1/DTD/svg11.dtd">
<svg version="1.1" id="Capa_1" xmlns="http://www.w3.org/2000/svg" xmlns:xlink="http://www.w3.org/1999/xlink" x="0px" y="0px"
	 viewBox="0 0 312.553 312.553" style="enable-background:new 0 0 312.553 312.553;" xml:space="preserve">
<g>
	<path d="M232.192,127.283h-8.206v31.845h8.206c20.006,0,20.006-12.191,20.006-16.197
		C252.199,139.061,252.199,127.283,232.192,127.283z"/>
	<path d="M302.553,0H10C4.476,0,0,4.478,0,10v292.553c0,5.522,4.476,10,10,10h292.553c5.523,0,10-4.478,10-10V10
		C312.553,4.478,308.076,0,302.553,0z M125.243,202.583c-4.549,2.108-9.945,0.131-12.053-4.419l-8.316-17.941H67.726l-8.196,17.902
		c-1.526,3.334-4.818,5.302-8.259,5.302c-1.265,0-2.549-0.266-3.773-0.826c-4.558-2.087-6.562-7.475-4.475-12.031l34.859-76.142
		c1.475-3.222,4.689-5.291,8.232-5.299c0.007,0,0.014,0,0.021,0c3.535,0,6.749,2.052,8.236,5.26l35.291,76.141
		C131.77,195.078,129.792,200.475,125.243,202.583z M164.368,201.245c-11.678,0-23.595-4.926-31.101-12.856
		c-3.446-3.642-3.288-9.387,0.353-12.833c3.642-3.447,9.387-3.287,12.833,0.353c4.066,4.296,11.265,7.183,17.915,7.183
		c6.716,0,14.56-1.902,14.56-7.262c0.043-5.149-2.611-6.982-15.775-10.969c-11.85-3.589-29.758-9.013-29.758-29.77
		c0-15.529,13.411-25.962,33.37-25.962c8.847,0,18.498,2.687,25.186,7.011c4.21,2.723,5.417,8.342,2.694,12.552
		c-2.722,4.21-8.342,5.417-12.552,2.694c-3.735-2.415-10.039-4.103-15.329-4.103c-7.019,0-15.215,2.045-15.215,7.808
		c0,6.33,3.799,8.438,16.866,12.394c11.481,3.477,28.831,8.732,28.667,28.42C197.083,188.48,186.967,201.245,164.368,201.245z
		 M232.192,177.282h-8.206v17.064c0,5.014-4.065,9.077-9.078,9.077s-9.078-4.064-9.078-9.077v-76.141
		c0-5.014,4.064-9.077,9.078-9.077h17.284c23.539,0,38.162,12.952,38.162,33.802C270.354,164.12,255.731,177.282,232.192,177.282z"
		/>
	<polygon points="76.038,162.069 96.46,162.069 86.186,139.903 	"/>
</g>
<g>
</g>
<g>
</g>
<g>
</g>
<g>
</g>
<g>
</g>
<g>
</g>
<g>
</g>
<g>
</g>
<g>
</g>
<g>
</g>
<g>
</g>
<g>
</g>
<g>
</g>
<g>
</g>
<g>
</g>
</svg>
